<svg xmlns="http://www.w3.org/2000/svg" style="display: none;">
  
  <symbol id="icon-dropdown" viewBox="0 0 12 8">
    <path d="M1 1L6 6L11 1" stroke="currentColor" stroke-width="2" stroke-linecap="round" stroke-linejoin="round" />
  </symbol>

  <symbol id="icon-search" viewBox="0 0 24 24" fill="currentColor">
    <path d="M21.53 20.47l-4.49-4.49A7.94 7.94 0 1016 18l4.49 4.49a.75.75 0 101.06-1.06zM4.75 11a6.25 6.25 0 1112.5 0 6.25 6.25 0 01-12.5 0z" />
  </symbol>

  <symbol id="icon-user" viewBox="0 0 24 24" fill="none">
    <path d="M12 2C6.477 2 2 6.477 2 12C2 17.523 6.477 22 12 22C17.523 22 22 17.523 22 12C22 6.477 17.523 2 12 2Z" stroke="black" stroke-linecap="round" stroke-linejoin="round"/>
    <path d="M4.271 18.346C4.271 18.346 6.5 15.5 12 15.5C17.5 15.5 19.73 18.346 19.73 18.346" stroke="black" stroke-linecap="round" stroke-linejoin="round"/>
    <path d="M12 12C12.7956 12 13.5587 11.6839 14.1213 11.1213C14.6839 10.5587 15 9.79565 15 9C15 8.20435 14.6839 7.44129 14.1213 6.87868C13.5587 6.31607 12.7956 6 12 6C11.2044 6 10.4413 6.31607 9.87868 6.87868C9.31607 7.44129 9 8.20435 9 9C9 9.79565 9.31607 10.5587 9.87868 11.1213C10.4413 11.6839 11.2044 12 12 12V12Z" stroke="black" stroke-linecap="round" stroke-linejoin="round"/>
  </symbol>

  <symbol id="icon-user2" viewBox="0 0 24 24" fill="none">
    <circle cx="12" cy="12" r="11" stroke="currentColor" stroke-width="2" />
    <circle cx="12" cy="8.5" r="3" stroke="currentColor" stroke-width="2" />
    <path d="M6 19C6 16 9 14.5 12 14.5C15 14.5 18 16 18 19" stroke="currentColor" stroke-width="2" />
  </symbol>

  <symbol id="icon-logo" viewBox="0 0 31 26">
    <path d="M0 0H31V26H0V0Z" fill="#FF5733"/>
    <path d="M5 5H26V21H5V5Z" fill="white"/>
    <text x="15.5" y="16" text-anchor="middle" font-size="6" fill="#000">LOGO</text>
  </symbol>

</svg>


