<svg xmlns="http://www.w3.org/2000/svg" style="display: none;">
  
  <symbol id="icon-dropdown" viewBox="0 0 12 8">
    <path d="M1 1L6 6L11 1" stroke="currentColor" stroke-width="2" stroke-linecap="round" stroke-linejoin="round" />
  </symbol>

  <symbol id="icon-search" viewBox="0 0 24 24" fill="currentColor">
    <path d="M21.53 20.47l-4.49-4.49A7.94 7.94 0 1016 18l4.49 4.49a.75.75 0 101.06-1.06zM4.75 11a6.25 6.25 0 1112.5 0 6.25 6.25 0 01-12.5 0z" />
  </symbol>

  <symbol id="icon-user" viewBox="0 0 24 24" fill="none">
    <path d="M12 2C6.477 2 2 6.477 2 12C2 17.523 6.477 22 12 22C17.523 22 22 17.523 22 12C22 6.477 17.523 2 12 2Z" stroke="black" stroke-linecap="round" stroke-linejoin="round"/>
    <path d="M4.271 18.346C4.271 18.346 6.5 15.5 12 15.5C17.5 15.5 19.73 18.346 19.73 18.346" stroke="black" stroke-linecap="round" stroke-linejoin="round"/>
    <path d="M12 12C12.7956 12 13.5587 11.6839 14.1213 11.1213C14.6839 10.5587 15 9.79565 15 9C15 8.20435 14.6839 7.44129 14.1213 6.87868C13.5587 6.31607 12.7956 6 12 6C11.2044 6 10.4413 6.31607 9.87868 6.87868C9.31607 7.44129 9 8.20435 9 9C9 9.79565 9.31607 10.5587 9.87868 11.1213C10.4413 11.6839 11.2044 12 12 12V12Z" stroke="black" stroke-linecap="round" stroke-linejoin="round"/>
  </symbol>

  <symbol id="icon-user2" viewBox="0 0 24 24" fill="none">
    <circle cx="12" cy="12" r="11" stroke="currentColor" stroke-width="2" />
    <circle cx="12" cy="8.5" r="3" stroke="currentColor" stroke-width="2" />
    <path d="M6 19C6 16 9 14.5 12 14.5C15 14.5 18 16 18 19" stroke="currentColor" stroke-width="2" />
  </symbol>

  <symbol id="icon-logo" viewBox="0 0 31 26">
    <path d="M0 0H31V26H0V0Z" fill="#FF5733"/>
    <path d="M5 5H26V21H5V5Z" fill="white"/>
    <text x="15.5" y="16" text-anchor="middle" font-size="6" fill="#000">LOGO</text>
  </symbol>

<symbol id="icon-mail" viewBox="0 0 24 24" fill="currentColor">
    <path d="M20 4H4a2 2 0 0 0-2 2v12a2 2 0 0 0 2 2h16a2 2 0 0 0 2-2V6a2 2 0 0 0-2-2zm0 2v.01L12 13 4 6.01V6h16zM4 18V8l8 5 8-5v10H4z"/>
  </symbol>

  <symbol id="icon-phone" viewBox="0 0 24 24" fill="currentColor">
    <path d="M6.62 10.79a15.053 15.053 0 0 0 6.59 6.59l2.2-2.2a1 1 0 0 1 1.11-.21c1.21.49 2.53.76 3.88.76a1 1 0 0 1 1 1v3.5a1 1 0 0 1-1 1C10.07 21.5 2.5 13.93 2.5 4a1 1 0 0 1 1-1H7a1 1 0 0 1 1 1c0 1.35.27 2.67.76 3.88a1 1 0 0 1-.21 1.11l-2.2 2.2z"/>
  </symbol>

  <symbol id="icon-facebook" viewBox="0 0 24 24" fill="currentColor">
    <path d="M22 12c0-5.522-4.477-10-10-10S2 6.478 2 12c0 4.991 3.657 9.128 8.438 9.878v-6.988H7.898v-2.89h2.54V9.845c0-2.507 1.492-3.89 3.777-3.89 1.094 0 2.238.195 2.238.195v2.46h-1.26c-1.243 0-1.63.771-1.63 1.562v1.875h2.773l-.443 2.89h-2.33V21.878C18.343 21.128 22 16.991 22 12z"/>
  </symbol>

  <symbol id="icon-instagram" viewBox="0 0 24 24" fill="currentColor">
    <path d="M7.75 2h8.5A5.75 5.75 0 0 1 22 7.75v8.5A5.75 5.75 0 0 1 16.25 22h-8.5A5.75 5.75 0 0 1 2 16.25v-8.5A5.75 5.75 0 0 1 7.75 2zm0 1.5A4.25 4.25 0 0 0 3.5 7.75v8.5A4.25 4.25 0 0 0 7.75 20.5h8.5A4.25 4.25 0 0 0 20.5 16.25v-8.5A4.25 4.25 0 0 0 16.25 3.5h-8.5zM12 7a5 5 0 1 1 0 10 5 5 0 0 1 0-10zm0 1.5a3.5 3.5 0 1 0 0 7 3.5 3.5 0 0 0 0-7zm4.75-.75a.75.75 0 1 1 0 1.5.75.75 0 0 1 0-1.5z"/>
  </symbol>

</svg>

